<svg xmlns="http://www.w3.org/2000/svg" width="129" height="118" fill="none"><path fill="url(#a)" d="M126.145 70.335 79.778.19c-.23-.34-.758-.2-.778.21-.11 1.778-1.608 11.256-12.29 11.256-8.667 0-12.67-1.558-21.596-1.558-3.085 0-6.76 1.748-8.687 4.674l-3.644 5.513L67.668 73.04h13.648c4.024 0 7.778 2.018 9.994 5.374l8.327 12.614h28.375V76.527c0-2.197-.649-4.355-1.867-6.192Zm-38.05-30.043c-5.6-2.267-9.964-12.215-9.964-12.215 11.322 0 18.95 13.493 18.95 13.493s-3.375.989-8.976-1.278h-.01Z"/><path fill="url(#b)" d="M84.181 117.995H32.943a10.949 10.949 0 0 1-9.146-4.914L1.992 80.092a11.986 11.986 0 0 1 0-13.234l24.261-36.665h.01l57.918 87.812v-.01Z"/><defs><linearGradient id="a" x1="80.397" x2="80.397" y1="91.029" y2=".001" gradientUnits="userSpaceOnUse"><stop stop-color="#f97316"/><stop offset="1" stop-color="#f97316"/></linearGradient><linearGradient id="b" x1="42.098" x2="42.098" y1="118.005" y2="30.173" gradientUnits="userSpaceOnUse"><stop stop-color="#f97316"/><stop offset="1" stop-color="#f97316"/></linearGradient></defs></svg>
